<?xml version="1.0" encoding="UTF-8" standalone="no"?>
<!-- Generator: Adobe Illustrator 16.0.0, SVG Export Plug-In . SVG Version: 6.00 Build 0)  -->

<svg
   xmlns:dc="http://purl.org/dc/elements/1.1/"
   xmlns:cc="http://creativecommons.org/ns#"
   xmlns:rdf="http://www.w3.org/1999/02/22-rdf-syntax-ns#"
   xmlns:svg="http://www.w3.org/2000/svg"
   xmlns="http://www.w3.org/2000/svg"
   xmlns:sodipodi="http://sodipodi.sourceforge.net/DTD/sodipodi-0.dtd"
   xmlns:inkscape="http://www.inkscape.org/namespaces/inkscape"
   version="1.1"
   id="Capa_1"
   x="0px"
   y="0px"
   width="528.899px"
   height="528.899px"
   viewBox="0 0 528.899 528.899"
   style="enable-background:new 0 0 528.899 528.899;"
   xml:space="preserve"
   sodipodi:docname="edit_constraints.svg"
   inkscape:export-filename="C:\Users\Pogie\Documents\VSProjects\WinSquint2\Resources\edit.png"
   inkscape:export-xdpi="119.093"
   inkscape:export-ydpi="119.093"
   inkscape:version="0.92.3 (2405546, 2018-03-11)"><metadata
   id="metadata5921"><rdf:RDF><cc:Work
       rdf:about=""><dc:format>image/svg+xml</dc:format><dc:type
         rdf:resource="http://purl.org/dc/dcmitype/StillImage" /><dc:title></dc:title></cc:Work></rdf:RDF></metadata><defs
   id="defs5919" /><sodipodi:namedview
   pagecolor="#ffffff"
   bordercolor="#666666"
   borderopacity="1"
   objecttolerance="10"
   gridtolerance="10"
   guidetolerance="10"
   inkscape:pageopacity="0"
   inkscape:pageshadow="2"
   inkscape:window-width="1278"
   inkscape:window-height="1528"
   id="namedview5917"
   showgrid="false"
   inkscape:zoom="1.2620724"
   inkscape:cx="265.12316"
   inkscape:cy="188.01894"
   inkscape:window-x="1273"
   inkscape:window-y="0"
   inkscape:window-maximized="0"
   inkscape:current-layer="Capa_1" />
<g
   id="g5884">
	<path
   d="M328.883,89.125l107.59,107.589l-272.34,272.34L56.604,361.465L328.883,89.125z M518.113,63.177l-47.981-47.981   c-18.543-18.543-48.653-18.543-67.259,0l-45.961,45.961l107.59,107.59l53.611-53.611   C532.495,100.753,532.495,77.559,518.113,63.177z M0.3,512.69c-1.958,8.812,5.998,16.708,14.811,14.565l119.891-29.069   L27.473,390.597L0.3,512.69z"
   id="path5882" />
</g>
<g
   id="g5886">
</g>
<g
   id="g5888">
</g>
<g
   id="g5890">
</g>
<g
   id="g5892">
</g>
<g
   id="g5894">
</g>
<g
   id="g5896">
</g>
<g
   id="g5898">
</g>
<g
   id="g5900">
</g>
<g
   id="g5902">
</g>
<g
   id="g5904">
</g>
<g
   id="g5906">
</g>
<g
   id="g5908">
</g>
<g
   id="g5910">
</g>
<g
   id="g5912">
</g>
<g
   id="g5914">
</g>
<flowRoot
   xml:space="preserve"
   id="flowRoot5923"
   style="font-style:normal;font-weight:normal;font-size:192px;line-height:1.25;font-family:sans-serif;letter-spacing:0px;word-spacing:0px;fill:#000000;fill-opacity:1;stroke:none"><flowRegion
     id="flowRegion5925"><rect
       id="rect5927"
       width="244.8354"
       height="247.21245"
       x="61.803112"
       y="52.69809" /></flowRegion><flowPara
     id="flowPara5929" /></flowRoot><flowRoot
   xml:space="preserve"
   id="flowRoot10711"
   style="font-style:normal;font-weight:normal;font-size:192px;line-height:1.25;font-family:sans-serif;letter-spacing:0px;word-spacing:0px;fill:#000000;fill-opacity:1;stroke:none"><flowRegion
     id="flowRegion10713"><rect
       id="rect10715"
       width="373.98807"
       height="260.68234"
       x="76.857719"
       y="55.867477" /></flowRegion><flowPara
     id="flowPara10717">57754d</flowPara></flowRoot><g
   aria-label="≥"
   transform="matrix(2.9041975,0,0,2.8505175,-67.083126,-287.91085)"
   style="font-style:normal;font-weight:normal;font-size:192px;line-height:1.25;font-family:sans-serif;letter-spacing:0px;word-spacing:0px;fill:#00ffff;fill-opacity:1;stroke:none"
   id="flowRoot10719-7"><path
     sodipodi:type="inkscape:offset"
     inkscape:radius="0.66995043"
     inkscape:original="M 63.931641 124.16992 A 4.7969803 4.7969803 0 0 0 59.152344 128.9668 L 59.152344 146.12305 A 4.7969803 4.7969803 0 0 0 62.140625 150.56445 L 134.57812 180.06055 L 62.140625 209.55664 A 4.7969803 4.7969803 0 0 0 59.152344 213.99805 L 59.152344 231.1543 A 4.7969803 4.7969803 0 0 0 65.800781 235.57812 L 173.98828 190.29688 A 4.7969803 4.7969803 0 0 0 176.93359 185.87305 L 176.93359 174.24805 A 4.7969803 4.7969803 0 0 0 173.98828 169.82422 L 65.800781 124.54297 A 4.7969803 4.7969803 0 0 0 63.931641 124.16992 z M 63.949219 239.76367 A 4.7969803 4.7969803 0 0 0 59.152344 244.56055 L 59.152344 259.56055 A 4.7969803 4.7969803 0 0 0 63.949219 264.35742 L 172.13672 264.35742 A 4.7969803 4.7969803 0 0 0 176.93359 259.56055 L 176.93359 244.56055 A 4.7969803 4.7969803 0 0 0 172.13672 239.76367 L 63.949219 239.76367 z "
     id="path11356"
     d="m 63.929688,123.5 c -1.427858,0.005 -2.845717,0.59591 -3.853516,1.60742 -1.007799,1.01151 -1.59373,2.43151 -1.59375,3.85938 v 17.15625 c 6.88e-4,2.15737 1.408103,4.24906 3.40625,5.0625 l 70.912108,28.875 -70.912108,28.875 c -1.998151,0.81344 -3.405566,2.90512 -3.40625,5.0625 v 17.15625 c 5.46e-4,1.792 0.945582,3.55807 2.4375,4.55078 1.491917,0.99271 3.485519,1.18188 5.138672,0.49023 L 174.24609,190.91406 c 1.97394,-0.82597 3.35682,-2.90123 3.35743,-5.04101 v -11.625 c -6.1e-4,-2.13978 -1.38349,-4.21505 -3.35743,-5.04102 L 66.060547,123.92578 h -0.002 C 65.38686,123.64444 64.657957,123.49781 63.929688,123.5 Z m 0.01953,115.59375 c -1.4312,3e-5 -2.853224,0.58955 -3.865235,1.60156 -1.01201,1.01201 -1.601532,2.43404 -1.601562,3.86524 v 15 c 3.3e-5,1.4312 0.589552,2.85322 1.601562,3.86523 1.012011,1.01201 2.434037,1.60153 3.865235,1.60156 H 172.13672 c 1.4312,-3e-5 2.85322,-0.58955 3.86523,-1.60156 1.01201,-1.01201 1.60153,-2.43404 1.60157,-3.86523 v -15 c -3e-5,-1.4312 -0.58956,-2.85323 -1.60157,-3.86524 -1.01201,-1.01201 -2.43403,-1.60153 -3.86523,-1.60156 z"
     style="fill:#ffffff" /></g><flowRoot
   xml:space="preserve"
   id="flowRoot10719"
   style="font-style:normal;font-weight:normal;font-size:192px;line-height:1.25;font-family:sans-serif;letter-spacing:0px;word-spacing:0px;fill:#f55314;fill-opacity:1;stroke:none"
   transform="matrix(2.9041975,0,0,2.8505175,-67.099961,-287.77983)"><flowRegion
     id="flowRegion10721"
     style="fill:#f55314;fill-opacity:1"><rect
       id="rect10723"
       width="421.52893"
       height="274.15225"
       x="38.825031"
       y="84.391991"
       style="fill:#f55314;fill-opacity:1" /></flowRegion><flowPara
     id="flowPara10725">≥</flowPara></flowRoot><g
   aria-label="≥"
   transform="translate(77.666885,-108.28644)"
   style="font-style:normal;font-weight:normal;font-size:192px;line-height:1.25;font-family:sans-serif;letter-spacing:0px;word-spacing:0px;fill:#f55314;fill-opacity:1;stroke:none"
   id="flowRoot10719-5" /></svg>